<svg id="bg-desktop" xmlns="http://www.w3.org/2000/svg" xmlns:xlink="http://www.w3.org/1999/xlink" width="1319.201" height="801" viewBox="0 0 1319.201 801">
  <defs>
    <linearGradient id="linear-gradient" x1="-0.452" y1="1.881" x2="0.978" gradientUnits="objectBoundingBox">
      <stop offset="0" stop-color="#0609dd"/>
      <stop offset="0.041" stop-color="#0609df"/>
      <stop offset="1" stop-color="#dff6ff" stop-opacity="0.702"/>
    </linearGradient>
    <linearGradient id="linear-gradient-2" x1="-0.641" y1="-1.219" x2="0.978" y2="1" gradientUnits="objectBoundingBox">
      <stop offset="0" stop-color="#0609dc"/>
      <stop offset="0.041" stop-color="#0609e0"/>
      <stop offset="1" stop-color="#dff6ff" stop-opacity="0.702"/>
    </linearGradient>
    <linearGradient id="linear-gradient-3" x1="0.217" y1="0.05" x2="1.459" y2="1.456" gradientUnits="objectBoundingBox">
      <stop offset="0" stop-color="#dff6ff"/>
      <stop offset="1" stop-color="#2d31fa"/>
    </linearGradient>
    <linearGradient id="linear-gradient-8" x1="0.064" y1="-0.152" x2="0.918" y2="1.057" xlink:href="#linear-gradient-3"/>
  </defs>
  <path id="Path_6" data-name="Path 6" d="M0,0H409.224L834.817-376V-532.83Z" transform="translate(834.817) rotate(180)" fill-rule="evenodd" fill="url(#linear-gradient)"/>
  <path id="Path_7" data-name="Path 7" d="M0,367l641.153.138L1057.3,673.3V801Z" transform="translate(1057.3 1168) rotate(180)" fill-rule="evenodd" fill="url(#linear-gradient-2)"/>
  <rect id="Rectangle_1" data-name="Rectangle 1" width="38" height="38" rx="3" transform="translate(1107.871 682.006) rotate(45)" opacity="0.558" fill="url(#linear-gradient-3)"/>
  <rect id="Rectangle_2" data-name="Rectangle 2" width="56" height="56" rx="3" transform="translate(1279.603 64.006) rotate(45)" opacity="0.503" fill="url(#linear-gradient-3)"/>
  <rect id="Rectangle_3" data-name="Rectangle 3" width="32" height="32" rx="3" transform="translate(934.63 41.003) rotate(45)" opacity="0.558" fill="url(#linear-gradient-3)"/>
  <rect id="Rectangle_4" data-name="Rectangle 4" width="32" height="32" rx="3" transform="translate(703.629 164.002) rotate(45)" opacity="0.558" fill="url(#linear-gradient-3)"/>
  <rect id="Rectangle_5" data-name="Rectangle 5" width="17" height="17" rx="1" transform="translate(1237.021 594.006) rotate(45)" opacity="0.387" fill="url(#linear-gradient-3)"/>
  <path id="Path_8" data-name="Path 8" d="M91.477,739.477v-16.5a5,5,0,0,1,10,0v16.5h16.5a5,5,0,0,1,0,10h-16.5v16.5a5,5,0,1,1-10,0v-16.5h-16.5a5,5,0,0,1,0-10Z" transform="translate(554.682 149.833) rotate(45)" fill-rule="evenodd" opacity="0.211" fill="url(#linear-gradient-8)"/>
</svg>
